<svg xmlns="http://www.w3.org/2000/svg" xmlns:xlink="http://www.w3.org/1999/xlink" version="1.1" x="0px" y="0px" viewBox="0 0 512 640" enable-background="new 0 0 512 512" xml:space="preserve"><g><path d="M419.07,197.328h-50.203v-84.438C368.867,50.641,318.242,0,256.008,0c-62.242,0-112.875,50.641-112.875,112.891v84.438   H92.938c-13.195,0-23.93,10.719-23.93,23.906v266.844c0,13.188,10.734,23.922,23.93,23.922H419.07   c13.203,0,23.922-10.734,23.922-23.922V221.234C442.992,208.047,432.273,197.328,419.07,197.328z M161.328,112.891   c0-52.188,42.477-94.672,94.68-94.672s94.672,42.484,94.672,94.672v84.438H161.328V112.891z M424.805,493.797H87.211V215.516   h337.594V493.797z"/><path d="M215.82,370.766l1.438,1.625l0.008,20.562c-0.008,22.156,17.367,39.531,38.734,39.531s38.742-17.375,38.742-38.766v-21.328   l1.438-1.625c2.219-2.516,4.25-5.281,6-8.234c4.844-8.219,7.406-17.625,7.406-27.172c0-29.531-24.031-53.562-53.586-53.562   c-29.539,0-53.57,24.031-53.57,53.562c0,9.547,2.562,18.953,7.406,27.172C211.578,365.484,213.602,368.25,215.82,370.766z    M256,299.984c19.508,0,35.367,15.859,35.367,35.375c0,11.406-5.594,22.156-14.812,28.781l-0.016,29.219   c0.016,11.688-9.211,20.891-20.539,20.891s-20.539-9.203-20.539-20.531v-29.578c-9.227-6.625-14.828-17.375-14.828-28.781   C220.633,315.844,236.5,299.984,256,299.984z"/></g></svg>