<?xml version="1.0" encoding="UTF-8" standalone="no"?>
<!DOCTYPE svg PUBLIC "-//W3C//DTD SVG 1.1//EN" "http://www.w3.org/Graphics/SVG/1.1/DTD/svg11.dtd">
<svg version="1.1" xmlns="http://www.w3.org/2000/svg" xmlns:xlink="http://www.w3.org/1999/xlink" preserveAspectRatio="xMidYMid meet" viewBox="0 0 640 640" width="640" height="640"><defs><path d="M329.25 0.37L333.8 0.84L338.29 1.48L342.73 2.3L347.1 3.29L351.41 4.44L355.64 5.76L359.81 7.25L363.9 8.89L367.91 10.68L371.83 12.62L375.67 14.71L379.41 16.94L383.07 19.31L386.62 21.81L390.07 24.44L393.42 27.21L396.65 30.09L399.78 33.1L402.78 36.23L405.67 39.46L408.43 42.81L411.06 46.26L413.57 49.82L415.94 53.47L418.16 57.22L420.25 61.05L422.19 64.98L423.98 68.99L425.62 73.08L427.1 77.25L428.42 81.48L429.58 85.79L430.57 90.17L431.39 94.6L432.03 99.1L432.49 103.64L432.77 108.24L432.87 112.89L432.87 197.33L483.07 197.33L484.06 197.35L485.03 197.41L486 197.51L486.95 197.64L487.89 197.81L488.82 198.02L489.73 198.27L490.63 198.55L491.51 198.86L492.38 199.21L493.23 199.59L494.06 200L494.87 200.44L495.67 200.91L496.44 201.41L497.19 201.95L497.93 202.5L498.63 203.09L499.32 203.7L499.98 204.34L500.62 205L501.23 205.68L501.82 206.39L502.37 207.12L502.9 207.87L503.41 208.65L503.88 209.44L504.32 210.25L504.73 211.09L505.11 211.94L505.46 212.8L505.77 213.68L506.05 214.58L506.3 215.49L506.51 216.42L506.68 217.36L506.81 218.31L506.91 219.28L506.97 220.25L506.99 221.23L506.99 488.08L506.97 489.06L506.91 490.04L506.81 491L506.68 491.95L506.51 492.89L506.3 493.82L506.05 494.73L505.77 495.63L505.46 496.51L505.11 497.38L504.73 498.23L504.32 499.06L503.88 499.88L503.41 500.67L502.9 501.44L502.37 502.2L501.82 502.93L501.23 503.64L500.62 504.32L499.98 504.99L499.32 505.62L498.63 506.23L497.93 506.82L497.19 507.38L496.44 507.91L495.67 508.41L494.87 508.88L494.06 509.33L493.23 509.74L492.38 510.12L491.51 510.47L490.63 510.78L489.73 511.06L488.82 511.3L487.89 511.51L486.95 511.69L486 511.82L485.03 511.92L484.06 511.98L483.07 512L156.94 512L155.95 511.98L154.98 511.92L154.01 511.82L153.06 511.69L152.12 511.51L151.19 511.3L150.28 511.06L149.38 510.78L148.5 510.47L147.63 510.12L146.78 509.74L145.95 509.33L145.14 508.88L144.34 508.41L143.57 507.91L142.81 507.38L142.08 506.82L141.37 506.23L140.69 505.62L140.02 504.99L139.39 504.32L138.78 503.64L138.19 502.93L137.63 502.2L137.1 501.44L136.6 500.67L136.13 499.88L135.68 499.06L135.27 498.23L134.89 497.38L134.54 496.51L134.23 495.63L133.95 494.73L133.7 493.82L133.5 492.89L133.32 491.95L133.19 491L133.09 490.04L133.03 489.06L133.01 488.08L133.01 221.24L133.03 220.25L133.09 219.28L133.19 218.31L133.32 217.36L133.5 216.42L133.7 215.5L133.95 214.58L134.23 213.68L134.54 212.8L134.89 211.94L135.27 211.09L135.68 210.26L136.13 209.44L136.6 208.65L137.1 207.88L137.63 207.12L138.19 206.39L138.78 205.68L139.39 205L140.02 204.34L140.69 203.7L141.37 203.09L142.08 202.5L142.81 201.95L143.57 201.42L144.34 200.91L145.14 200.44L145.95 200L146.78 199.59L147.63 199.21L148.5 198.86L149.38 198.55L150.28 198.27L151.19 198.02L152.12 197.82L153.06 197.64L154.01 197.51L154.98 197.41L155.95 197.35L156.94 197.33L207.13 197.33L207.13 112.89L207.23 108.24L207.51 103.65L207.97 99.1L208.61 94.6L209.43 90.17L210.42 85.79L211.58 81.49L212.9 77.25L214.38 73.08L216.02 68.99L217.81 64.98L219.75 61.05L221.84 57.22L224.07 53.47L226.44 49.82L228.94 46.26L231.57 42.81L234.34 39.46L237.22 36.23L240.23 33.1L243.35 30.09L246.59 27.21L249.94 24.44L253.39 21.81L256.94 19.31L260.59 16.94L264.34 14.71L268.18 12.62L272.1 10.68L276.11 8.89L280.2 7.25L284.37 5.76L288.61 4.44L292.91 3.29L297.29 2.3L301.72 1.48L306.22 0.84L310.76 0.37L315.36 0.09L320.01 0L324.65 0.09L329.25 0.37ZM151.21 493.8L488.81 493.8L488.81 215.52L151.21 215.52L151.21 493.8ZM314.81 18.46L312.23 18.75L309.66 19.17L307.11 19.7L304.57 20.35L302.03 21.12L299.52 22.01L297.01 23.01L294.51 24.14L292.03 25.38L289.56 26.74L287.1 28.22L284.66 29.82L282.22 31.53L279.8 33.37L277.39 35.32L274.99 37.39L272.61 39.58L270.24 41.89L267.88 44.31L265.53 46.86L263.19 49.52L260.87 52.3L258.55 55.2L256.25 58.22L253.97 61.35L251.69 64.61L249.43 67.98L247.17 71.47L244.94 75.08L242.71 78.81L240.49 82.66L238.29 86.62L236.1 90.7L233.92 94.9L231.75 99.22L229.6 103.66L227.46 108.22L225.33 112.89L225.33 197.33L414.68 197.33L414.68 112.89L414.6 109L414.37 105.14L413.98 101.33L413.44 97.56L412.75 93.84L411.92 90.17L410.95 86.56L409.85 83L408.6 79.51L407.23 76.08L405.73 72.72L404.1 69.43L402.35 66.21L400.48 63.07L398.49 60L396.39 57.02L394.18 54.13L391.86 51.32L389.44 48.6L386.92 45.98L384.3 43.46L381.59 41.04L378.78 38.72L375.88 36.51L372.9 34.41L369.84 32.43L366.7 30.56L363.48 28.8L360.19 27.18L356.82 25.67L353.39 24.3L349.9 23.05L346.34 21.95L342.73 20.98L339.06 20.15L335.34 19.46L331.58 18.92L327.76 18.53L323.9 18.3L320.01 18.22L317.4 18.28L314.81 18.46Z" id="dkiCx6qkO"></path><path d="M324.39 281.97L326.55 282.19L328.68 282.5L330.79 282.89L332.86 283.36L334.91 283.91L336.92 284.53L338.9 285.24L340.84 286.01L342.74 286.86L344.61 287.79L346.43 288.78L348.21 289.83L349.94 290.96L351.63 292.15L353.27 293.4L354.86 294.71L356.39 296.08L357.88 297.5L359.3 298.99L360.67 300.52L361.98 302.11L363.24 303.75L364.42 305.43L365.55 307.17L366.61 308.95L367.6 310.77L368.52 312.63L369.37 314.53L370.15 316.47L370.85 318.45L371.48 320.46L372.03 322.5L372.5 324.58L372.88 326.68L373.19 328.82L373.41 330.97L373.54 333.15L373.59 335.36L373.58 336.07L373.57 336.79L373.54 337.5L373.51 338.22L373.47 338.93L373.41 339.64L373.35 340.35L373.28 341.06L373.2 341.77L373.11 342.48L373.01 343.18L372.9 343.88L372.78 344.59L372.66 345.29L372.52 345.98L372.37 346.68L372.22 347.37L372.06 348.07L371.88 348.76L371.7 349.44L371.51 350.13L371.31 350.81L371.1 351.49L370.88 352.17L370.65 352.84L370.42 353.51L370.17 354.18L369.92 354.84L369.65 355.5L369.38 356.16L369.1 356.81L368.81 357.47L368.51 358.11L368.2 358.76L367.89 359.4L367.56 360.03L367.23 360.66L366.89 361.29L366.54 361.91L366.18 362.53L366.05 362.75L365.92 362.97L365.78 363.19L365.65 363.41L365.51 363.63L365.37 363.85L365.24 364.06L365.1 364.28L364.96 364.5L364.82 364.71L364.67 364.92L364.53 365.14L364.39 365.35L364.24 365.56L364.1 365.77L363.95 365.98L363.8 366.19L363.66 366.4L363.51 366.61L363.36 366.81L363.2 367.02L363.05 367.22L362.9 367.43L362.75 367.63L362.59 367.83L362.44 368.03L362.28 368.24L362.12 368.44L361.97 368.63L361.81 368.83L361.65 369.03L361.49 369.23L361.33 369.42L361.17 369.62L361 369.81L360.84 370L360.68 370.19L360.51 370.39L360.35 370.58L360.18 370.77L358.74 372.39L358.74 393.72L358.71 395.31L358.61 396.89L358.45 398.46L358.23 400L357.95 401.53L357.61 403.03L357.22 404.51L356.76 405.96L356.26 407.39L355.69 408.8L355.08 410.18L354.41 411.52L353.7 412.84L352.93 414.13L352.12 415.38L351.26 416.6L350.35 417.79L349.41 418.94L348.42 420.05L347.38 421.12L346.31 422.16L345.2 423.15L344.05 424.09L342.87 425L341.65 425.86L340.39 426.67L339.11 427.44L337.79 428.15L336.44 428.82L335.07 429.43L333.66 430L332.23 430.51L330.78 430.96L329.3 431.36L327.8 431.7L326.28 431.98L324.73 432.2L323.17 432.36L321.59 432.45L320 432.48L318.41 432.45L316.83 432.36L315.27 432.2L313.72 431.98L312.2 431.69L310.7 431.35L309.22 430.96L307.77 430.5L306.34 429.99L304.93 429.42L303.56 428.8L302.21 428.13L300.89 427.41L299.61 426.64L298.35 425.82L297.13 424.95L295.95 424.04L294.8 423.08L293.69 422.07L292.62 421.03L291.59 419.94L290.6 418.81L289.65 417.64L288.74 416.44L287.88 415.2L287.07 413.92L286.31 412.61L285.59 411.26L284.92 409.89L284.31 408.48L283.75 407.04L283.24 405.57L282.79 404.08L282.39 402.56L282.05 401.01L281.77 399.44L281.55 397.85L281.39 396.24L281.3 394.61L281.27 392.95L281.26 372.39L279.82 370.77L279.65 370.58L279.49 370.39L279.32 370.2L279.16 370L279 369.81L278.84 369.62L278.67 369.42L278.51 369.23L278.35 369.03L278.19 368.83L278.04 368.63L277.88 368.44L277.72 368.24L277.57 368.04L277.41 367.83L277.26 367.63L277.1 367.43L276.95 367.22L276.8 367.02L276.65 366.81L276.5 366.61L276.35 366.4L276.2 366.19L276.06 365.98L275.91 365.77L275.76 365.56L275.62 365.35L275.48 365.14L275.34 364.92L275.19 364.71L275.05 364.5L274.91 364.28L274.78 364.06L274.64 363.85L274.5 363.63L274.37 363.41L274.23 363.19L274.1 362.97L273.97 362.75L273.84 362.53L273.48 361.91L273.13 361.29L272.78 360.66L272.45 360.03L272.13 359.4L271.81 358.76L271.5 358.11L271.21 357.47L270.92 356.81L270.64 356.16L270.36 355.5L270.1 354.84L269.85 354.18L269.6 353.51L269.36 352.84L269.14 352.17L268.92 351.49L268.71 350.81L268.51 350.13L268.32 349.44L268.13 348.76L267.96 348.07L267.8 347.37L267.64 346.68L267.5 345.98L267.36 345.29L267.23 344.59L267.11 343.88L267.01 343.18L266.91 342.48L266.82 341.77L266.74 341.06L266.66 340.35L266.6 339.64L266.55 338.93L266.51 338.22L266.47 337.5L266.45 336.79L266.43 336.07L266.43 335.36L266.47 333.15L266.61 330.97L266.83 328.82L267.13 326.68L267.52 324.58L267.99 322.5L268.54 320.46L269.17 318.45L269.87 316.47L270.65 314.53L271.5 312.63L272.42 310.77L273.41 308.95L274.47 307.17L275.59 305.43L276.78 303.75L278.03 302.11L279.34 300.52L280.71 298.99L282.14 297.5L283.62 296.08L285.16 294.71L286.74 293.4L288.38 292.15L290.07 290.96L291.8 289.83L293.58 288.78L295.4 287.79L297.27 286.86L299.17 286.01L301.11 285.24L303.09 284.53L305.1 283.91L307.14 283.36L309.22 282.89L311.32 282.5L313.45 282.19L315.61 281.97L317.8 281.84L320 281.8L322.21 281.84L324.39 281.97ZM317.1 300.1L315.68 300.25L314.27 300.45L312.88 300.7L311.51 301.01L310.16 301.38L308.83 301.79L307.53 302.25L306.25 302.77L304.99 303.33L303.76 303.94L302.56 304.59L301.38 305.29L300.24 306.03L299.13 306.82L298.05 307.64L297 308.51L295.98 309.41L295 310.35L294.06 311.33L293.16 312.35L292.29 313.4L291.47 314.48L290.68 315.59L289.94 316.74L289.24 317.91L288.59 319.11L287.98 320.34L287.42 321.6L286.9 322.88L286.44 324.19L286.03 325.52L285.66 326.87L285.35 328.24L285.1 329.63L284.9 331.04L284.75 332.46L284.66 333.9L284.63 335.36L284.64 336.21L284.67 337.07L284.73 337.91L284.8 338.76L284.89 339.6L285 340.44L285.14 341.27L285.29 342.1L285.46 342.92L285.65 343.74L285.86 344.55L286.09 345.35L286.34 346.15L286.61 346.95L286.89 347.73L287.2 348.51L287.52 349.28L287.86 350.04L288.21 350.8L288.59 351.54L288.98 352.28L289.39 353.01L289.81 353.73L290.26 354.43L290.71 355.13L291.19 355.82L291.68 356.49L292.19 357.16L292.71 357.81L293.25 358.45L293.81 359.08L294.38 359.7L294.96 360.3L295.56 360.89L296.17 361.47L296.8 362.03L297.45 362.58L298.1 363.12L298.78 363.64L299.46 364.14L299.46 393.72L299.48 394.56L299.53 395.4L299.61 396.23L299.73 397.05L299.88 397.85L300.06 398.65L300.27 399.43L300.51 400.2L300.78 400.96L301.08 401.71L301.4 402.44L301.76 403.15L302.14 403.85L302.54 404.53L302.97 405.19L303.43 405.84L303.91 406.47L304.41 407.08L304.94 407.66L305.48 408.23L306.05 408.78L306.64 409.3L307.25 409.81L307.88 410.29L308.52 410.74L309.19 411.17L309.87 411.58L310.57 411.96L311.28 412.31L312.01 412.64L312.76 412.93L313.51 413.2L314.29 413.44L315.07 413.65L315.87 413.83L316.67 413.98L317.49 414.1L318.32 414.18L319.15 414.23L320 414.25L320.85 414.23L321.68 414.18L322.51 414.1L323.33 413.98L324.14 413.83L324.93 413.65L325.72 413.44L326.49 413.2L327.25 412.93L327.99 412.63L328.72 412.3L329.44 411.95L330.13 411.56L330.82 411.16L331.48 410.72L332.13 410.26L332.76 409.78L333.37 409.27L333.95 408.74L334.52 408.19L335.07 407.61L335.6 407.02L336.1 406.4L336.58 405.76L337.03 405.11L337.47 404.43L337.87 403.74L338.25 403.03L338.6 402.3L338.93 401.55L339.23 400.79L339.5 400.02L339.74 399.23L339.95 398.43L340.13 397.61L340.27 396.78L340.39 395.94L340.47 395.09L340.52 394.23L340.54 393.36L340.56 364.14L341.24 363.64L341.91 363.12L342.57 362.58L343.21 362.03L343.84 361.47L344.45 360.89L345.05 360.3L345.64 359.7L346.2 359.08L346.76 358.45L347.3 357.81L347.82 357.16L348.33 356.49L348.82 355.82L349.29 355.13L349.75 354.43L350.19 353.72L350.62 353.01L351.03 352.28L351.42 351.54L351.79 350.8L352.15 350.04L352.49 349.28L352.81 348.51L353.11 347.73L353.4 346.95L353.66 346.15L353.91 345.35L354.14 344.55L354.35 343.74L354.54 342.92L354.71 342.1L354.86 341.27L355 340.44L355.11 339.6L355.2 338.76L355.27 337.91L355.33 337.06L355.36 336.21L355.37 335.36L355.34 333.9L355.25 332.46L355.1 331.03L354.9 329.63L354.65 328.24L354.34 326.86L353.98 325.51L353.56 324.19L353.1 322.88L352.58 321.6L352.02 320.34L351.41 319.11L350.76 317.91L350.06 316.73L349.32 315.59L348.54 314.48L347.71 313.39L346.85 312.35L345.94 311.33L345 310.35L344.02 309.41L343.01 308.51L341.96 307.64L340.88 306.82L339.76 306.03L338.62 305.29L337.44 304.59L336.24 303.94L335.01 303.33L333.76 302.77L332.47 302.25L331.17 301.79L329.84 301.38L328.49 301.01L327.12 300.7L325.73 300.45L324.32 300.25L322.9 300.1L321.46 300.01L320 299.98L318.54 300.01L317.1 300.1Z" id="m3Lcx16aX4"></path><path d="M324.39 281.97L326.55 282.19L328.68 282.5L330.79 282.89L332.87 283.36L334.91 283.91L336.92 284.53L338.9 285.24L340.84 286.01L342.74 286.86L344.61 287.79L346.43 288.78L348.21 289.83L349.94 290.96L351.63 292.15L353.27 293.4L354.85 294.71L356.39 296.08L357.87 297.5L359.3 298.99L360.67 300.52L361.98 302.11L363.23 303.75L364.42 305.43L365.54 307.17L366.6 308.95L367.59 310.77L368.52 312.63L369.37 314.53L370.14 316.47L370.85 318.45L371.47 320.46L372.02 322.5L372.49 324.58L372.88 326.68L373.18 328.82L373.4 330.97L373.54 333.15L373.58 335.36L373.58 336.08L373.56 336.79L373.54 337.51L373.51 338.22L373.46 338.94L373.41 339.65L373.35 340.36L373.28 341.07L373.2 341.78L373.11 342.48L373.01 343.19L372.9 343.89L372.78 344.59L372.65 345.29L372.52 345.99L372.37 346.69L372.22 347.38L372.05 348.07L371.88 348.76L371.7 349.45L371.5 350.13L371.3 350.81L371.09 351.49L370.88 352.17L370.65 352.84L370.41 353.51L370.17 354.18L369.91 354.84L369.65 355.51L369.38 356.16L369.1 356.82L368.81 357.47L368.51 358.11L368.2 358.76L367.88 359.4L367.56 360.03L367.23 360.66L366.89 361.29L366.54 361.91L366.18 362.53L366.04 362.75L365.91 362.97L365.78 363.19L365.64 363.41L365.51 363.63L365.37 363.85L365.23 364.06L365.09 364.28L364.95 364.5L364.81 364.71L364.67 364.92L364.53 365.14L364.38 365.35L364.24 365.56L364.09 365.77L363.95 365.98L363.8 366.19L363.65 366.4L363.5 366.61L363.35 366.81L363.2 367.02L363.05 367.22L362.9 367.43L362.74 367.63L362.59 367.83L362.43 368.03L362.28 368.24L362.12 368.44L361.96 368.63L361.8 368.83L361.64 369.03L361.48 369.23L361.32 369.42L361.16 369.62L361 369.81L360.84 370L360.67 370.19L360.51 370.39L360.34 370.58L360.18 370.77L358.74 372.39L358.75 393.72L358.72 395.31L358.63 396.89L358.47 398.46L358.25 400L357.97 401.53L357.63 403.03L357.23 404.51L356.78 405.96L356.27 407.39L355.71 408.8L355.09 410.18L354.42 411.52L353.71 412.84L352.94 414.13L352.13 415.38L351.27 416.6L350.37 417.79L349.42 418.94L348.43 420.05L347.39 421.12L346.32 422.16L345.21 423.15L344.06 424.09L342.88 425L341.66 425.86L340.4 426.67L339.12 427.44L337.8 428.15L336.45 428.82L335.08 429.43L333.67 430L332.24 430.51L330.79 430.96L329.31 431.36L327.81 431.7L326.28 431.98L324.74 432.2L323.18 432.36L321.6 432.45L320 432.48L318.41 432.45L316.83 432.36L315.27 432.2L313.72 431.98L312.2 431.69L310.7 431.35L309.22 430.96L307.77 430.5L306.34 429.99L304.93 429.42L303.56 428.8L302.21 428.13L300.89 427.41L299.6 426.64L298.35 425.82L297.13 424.95L295.95 424.04L294.8 423.08L293.69 422.07L292.62 421.03L291.58 419.94L290.59 418.81L289.65 417.64L288.74 416.44L287.88 415.2L287.07 413.92L286.31 412.61L285.59 411.26L284.92 409.89L284.31 408.48L283.75 407.04L283.24 405.57L282.79 404.08L282.39 402.56L282.05 401.01L281.77 399.44L281.55 397.85L281.4 396.24L281.3 394.61L281.27 392.95L281.26 372.39L279.82 370.77L279.66 370.58L279.49 370.39L279.33 370.2L279.16 370L279 369.81L278.84 369.62L278.68 369.42L278.52 369.23L278.36 369.03L278.2 368.83L278.04 368.63L277.88 368.44L277.73 368.24L277.57 368.04L277.41 367.83L277.26 367.63L277.11 367.43L276.96 367.22L276.8 367.02L276.65 366.81L276.5 366.61L276.35 366.4L276.21 366.19L276.06 365.98L275.91 365.77L275.77 365.56L275.62 365.35L275.48 365.14L275.34 364.92L275.2 364.71L275.06 364.5L274.92 364.28L274.78 364.06L274.64 363.85L274.51 363.63L274.37 363.41L274.24 363.19L274.1 362.97L273.97 362.75L273.84 362.53L273.48 361.91L273.13 361.29L272.79 360.66L272.46 360.03L272.13 359.4L271.82 358.76L271.51 358.11L271.21 357.47L270.92 356.82L270.64 356.16L270.37 355.51L270.1 354.84L269.85 354.18L269.6 353.51L269.37 352.84L269.14 352.17L268.92 351.49L268.71 350.81L268.51 350.13L268.32 349.45L268.14 348.76L267.96 348.07L267.8 347.38L267.65 346.69L267.5 345.99L267.36 345.29L267.24 344.59L267.12 343.89L267.01 343.19L266.91 342.48L266.82 341.78L266.74 341.07L266.67 340.36L266.61 339.65L266.55 338.93L266.51 338.22L266.48 337.51L266.45 336.79L266.44 336.08L266.43 335.36L266.48 333.15L266.61 330.97L266.83 328.82L267.14 326.68L267.52 324.58L267.99 322.5L268.54 320.46L269.17 318.45L269.87 316.47L270.65 314.53L271.5 312.63L272.42 310.77L273.41 308.95L274.47 307.17L275.6 305.43L276.78 303.75L278.03 302.11L279.34 300.52L280.71 298.99L282.14 297.5L283.62 296.08L285.16 294.71L286.75 293.4L288.39 292.15L290.07 290.96L291.81 289.83L293.58 288.78L295.41 287.79L297.27 286.86L299.17 286.01L301.11 285.24L303.09 284.53L305.1 283.91L307.15 283.36L309.22 282.89L311.33 282.5L313.46 282.19L315.62 281.97L317.8 281.84L320 281.8L322.21 281.84L324.39 281.97ZM317.11 300.1L315.68 300.25L314.28 300.45L312.89 300.7L311.52 301.01L310.17 301.38L308.84 301.79L307.53 302.25L306.25 302.77L304.99 303.33L303.76 303.94L302.56 304.59L301.39 305.29L300.24 306.03L299.13 306.82L298.05 307.64L297 308.51L295.98 309.41L295 310.35L294.06 311.33L293.16 312.35L292.29 313.4L291.47 314.48L290.68 315.59L289.94 316.74L289.24 317.91L288.58 319.11L287.98 320.34L287.41 321.6L286.9 322.88L286.44 324.19L286.02 325.52L285.66 326.87L285.35 328.24L285.09 329.63L284.89 331.04L284.75 332.46L284.66 333.9L284.63 335.36L284.64 336.21L284.67 337.07L284.72 337.91L284.8 338.76L284.89 339.6L285 340.44L285.13 341.27L285.29 342.1L285.46 342.92L285.65 343.74L285.86 344.55L286.09 345.35L286.34 346.15L286.6 346.95L286.89 347.73L287.19 348.51L287.51 349.28L287.85 350.04L288.21 350.8L288.58 351.54L288.97 352.28L289.38 353.01L289.81 353.73L290.25 354.43L290.71 355.13L291.19 355.82L291.68 356.49L292.19 357.16L292.71 357.81L293.25 358.45L293.8 359.08L294.37 359.7L294.96 360.3L295.56 360.89L296.17 361.47L296.8 362.03L297.44 362.58L298.1 363.12L298.77 363.64L299.46 364.14L299.46 393.72L299.47 394.56L299.53 395.4L299.61 396.23L299.73 397.05L299.88 397.85L300.06 398.65L300.27 399.43L300.51 400.2L300.78 400.96L301.07 401.71L301.4 402.44L301.75 403.15L302.13 403.85L302.54 404.53L302.97 405.19L303.43 405.84L303.91 406.47L304.41 407.08L304.94 407.66L305.48 408.23L306.05 408.78L306.64 409.3L307.25 409.81L307.88 410.29L308.52 410.74L309.19 411.17L309.87 411.58L310.57 411.96L311.28 412.31L312.01 412.64L312.76 412.93L313.52 413.2L314.29 413.44L315.07 413.65L315.87 413.83L316.68 413.98L317.49 414.1L318.32 414.18L319.16 414.23L320 414.25L320.85 414.23L321.69 414.18L322.51 414.1L323.33 413.98L324.14 413.83L324.94 413.65L325.72 413.44L326.49 413.2L327.25 412.93L327.99 412.63L328.72 412.3L329.44 411.95L330.14 411.56L330.82 411.16L331.48 410.72L332.13 410.26L332.76 409.78L333.37 409.27L333.96 408.74L334.53 408.19L335.07 407.61L335.6 407.02L336.1 406.4L336.58 405.76L337.04 405.11L337.47 404.43L337.87 403.74L338.25 403.03L338.61 402.3L338.93 401.55L339.23 400.79L339.5 400.02L339.74 399.23L339.95 398.43L340.13 397.61L340.28 396.78L340.4 395.94L340.48 395.09L340.53 394.23L340.55 393.36L340.55 364.14L341.24 363.64L341.91 363.12L342.56 362.58L343.21 362.03L343.84 361.47L344.45 360.89L345.05 360.3L345.63 359.7L346.2 359.08L346.76 358.45L347.3 357.81L347.82 357.16L348.33 356.49L348.82 355.82L349.29 355.13L349.75 354.43L350.2 353.72L350.62 353.01L351.03 352.28L351.42 351.54L351.8 350.8L352.15 350.04L352.49 349.28L352.81 348.51L353.12 347.73L353.4 346.95L353.67 346.15L353.92 345.35L354.15 344.55L354.36 343.74L354.55 342.92L354.72 342.1L354.87 341.27L355.01 340.44L355.12 339.6L355.21 338.76L355.29 337.91L355.34 337.06L355.37 336.21L355.38 335.36L355.35 333.9L355.26 332.46L355.12 331.03L354.92 329.63L354.66 328.24L354.35 326.86L353.99 325.51L353.57 324.19L353.11 322.88L352.59 321.6L352.03 320.34L351.42 319.11L350.77 317.91L350.07 316.73L349.33 315.59L348.54 314.48L347.72 313.39L346.85 312.35L345.95 311.33L345 310.35L344.02 309.41L343.01 308.51L341.96 307.64L340.88 306.82L339.77 306.03L338.62 305.29L337.45 304.59L336.24 303.94L335.01 303.33L333.76 302.77L332.48 302.25L331.17 301.79L329.84 301.38L328.49 301.01L327.12 300.7L325.73 300.45L324.33 300.25L322.9 300.1L321.46 300.01L320 299.98L318.55 300.01L317.11 300.1Z" id="h3tq07sos"></path><path d="M329.25 0.37L333.79 0.84L338.29 1.48L342.72 2.3L347.09 3.29L351.4 4.44L355.64 5.76L359.81 7.25L363.9 8.89L367.9 10.68L371.83 12.62L375.67 14.71L379.42 16.94L383.07 19.31L386.62 21.81L390.07 24.44L393.42 27.21L396.66 30.09L399.78 33.1L402.79 36.23L405.67 39.46L408.44 42.81L411.07 46.26L413.57 49.82L415.94 53.47L418.17 57.22L420.26 61.05L422.2 64.98L423.99 68.99L425.63 73.08L427.11 77.25L428.44 81.48L429.59 85.79L430.58 90.17L431.4 94.6L432.04 99.1L432.5 103.64L432.79 108.24L432.88 112.89L432.86 132.17L432.85 132.54L432.82 132.9L432.78 133.27L432.73 133.62L432.66 133.97L432.57 134.32L432.48 134.66L432.37 135L432.25 135.33L432.11 135.66L431.96 135.97L431.81 136.29L431.63 136.59L431.45 136.89L431.26 137.18L431.06 137.46L430.84 137.74L430.62 138L430.39 138.26L430.15 138.51L429.89 138.75L429.63 138.98L429.36 139.2L429.09 139.41L428.8 139.6L428.51 139.79L428.21 139.97L427.9 140.14L427.59 140.29L427.27 140.43L426.94 140.56L426.61 140.68L426.27 140.79L425.92 140.88L425.58 140.96L425.22 141.02L424.87 141.07L424.5 141.11L424.14 141.13L423.77 141.14L423.4 141.13L423.04 141.11L422.67 141.07L422.32 141.02L421.96 140.96L421.62 140.88L421.27 140.79L420.94 140.68L420.6 140.56L420.28 140.43L419.96 140.29L419.64 140.14L419.34 139.97L419.04 139.8L418.74 139.61L418.46 139.41L418.18 139.2L417.91 138.98L417.65 138.76L417.4 138.52L417.16 138.27L416.93 138.02L416.7 137.75L416.49 137.48L416.29 137.2L416.09 136.91L415.91 136.62L415.74 136.32L415.58 136.01L415.44 135.7L415.3 135.37L415.18 135.05L415.07 134.72L414.97 134.38L414.89 134.04L414.82 133.69L414.76 133.34L414.72 132.99L414.69 132.63L414.68 132.27L414.68 112.89L414.6 108.99L414.36 105.14L413.97 101.33L413.43 97.56L412.75 93.84L411.92 90.17L410.95 86.56L409.84 83L408.6 79.51L407.22 76.08L405.72 72.72L404.09 69.43L402.34 66.21L400.47 63.06L398.49 60L396.39 57.02L394.18 54.13L391.86 51.32L389.44 48.6L386.92 45.98L384.3 43.46L381.58 41.04L378.78 38.72L375.88 36.51L372.9 34.41L369.84 32.43L366.69 30.55L363.47 28.8L360.18 27.17L356.82 25.67L353.39 24.3L349.9 23.05L346.34 21.95L342.73 20.98L339.06 20.15L335.34 19.46L331.57 18.92L327.76 18.53L323.9 18.3L320 18.22L316.11 18.3L312.25 18.53L308.44 18.92L304.67 19.46L300.95 20.15L297.28 20.98L293.67 21.95L290.12 23.05L286.62 24.3L283.19 25.67L279.83 27.17L276.54 28.8L273.32 30.55L270.18 32.43L267.11 34.41L264.13 36.51L261.24 38.72L258.43 41.04L255.71 43.46L253.09 45.98L250.57 48.6L248.15 51.32L245.83 54.13L243.62 57.02L241.52 60L239.54 63.06L237.67 66.21L235.92 69.43L234.29 72.72L232.78 76.08L231.41 79.51L230.17 83L229.06 86.56L228.09 90.17L227.26 93.84L226.57 97.56L226.03 101.33L225.65 105.14L225.41 108.99L225.33 112.89L225.33 197.33L483.07 197.33L484.05 197.35L485.03 197.41L485.99 197.51L486.94 197.64L487.88 197.81L488.81 198.02L489.73 198.27L490.62 198.55L491.51 198.86L492.37 199.21L493.22 199.59L494.06 200L494.87 200.44L495.66 200.91L496.44 201.41L497.19 201.95L497.92 202.5L498.63 203.09L499.32 203.7L499.98 204.34L500.62 205L501.23 205.68L501.81 206.39L502.37 207.12L502.9 207.87L503.4 208.65L503.87 209.44L504.32 210.25L504.73 211.09L505.11 211.94L505.45 212.8L505.77 213.68L506.05 214.58L506.29 215.49L506.5 216.42L506.67 217.36L506.81 218.31L506.91 219.28L506.97 220.25L506.99 221.23L506.99 488.08L506.97 489.06L506.91 490.04L506.81 491L506.67 491.95L506.5 492.89L506.29 493.82L506.05 494.73L505.77 495.63L505.45 496.51L505.11 497.38L504.73 498.23L504.32 499.06L503.87 499.88L503.4 500.67L502.9 501.44L502.37 502.2L501.81 502.93L501.23 503.64L500.62 504.32L499.98 504.99L499.32 505.62L498.63 506.23L497.92 506.82L497.19 507.38L496.44 507.91L495.66 508.41L494.87 508.88L494.06 509.33L493.22 509.74L492.37 510.12L491.51 510.47L490.62 510.78L489.73 511.06L488.81 511.3L487.88 511.51L486.94 511.69L485.99 511.82L485.03 511.92L484.05 511.98L483.07 512L156.94 512L155.96 511.98L154.98 511.92L154.02 511.82L153.06 511.69L152.12 511.51L151.2 511.3L150.28 511.06L149.39 510.78L148.5 510.47L147.63 510.12L146.78 509.74L145.95 509.33L145.14 508.88L144.34 508.41L143.57 507.91L142.82 507.38L142.09 506.82L141.38 506.23L140.69 505.62L140.03 504.99L139.39 504.32L138.78 503.64L138.19 502.93L137.63 502.2L137.1 501.44L136.6 500.67L136.13 499.88L135.69 499.06L135.27 498.23L134.89 497.38L134.55 496.51L134.23 495.63L133.95 494.73L133.71 493.82L133.5 492.89L133.32 491.95L133.19 491L133.09 490.04L133.03 489.06L133.01 488.08L133.01 221.24L133.03 220.25L133.09 219.28L133.19 218.31L133.32 217.36L133.5 216.42L133.71 215.5L133.95 214.58L134.23 213.68L134.55 212.8L134.89 211.94L135.27 211.09L135.69 210.26L136.13 209.44L136.6 208.65L137.1 207.88L137.63 207.12L138.19 206.39L138.78 205.68L139.39 205L140.03 204.34L140.69 203.7L141.38 203.09L142.09 202.5L142.82 201.95L143.57 201.42L144.35 200.91L145.14 200.44L145.95 200L146.79 199.59L147.64 199.21L148.5 198.86L149.39 198.55L150.28 198.27L151.2 198.02L152.12 197.82L153.06 197.64L154.02 197.51L154.98 197.41L155.96 197.35L156.94 197.33L207.13 197.33L207.13 112.89L207.22 108.24L207.5 103.65L207.97 99.1L208.61 94.6L209.43 90.17L210.42 85.79L211.57 81.49L212.89 77.25L214.37 73.08L216.01 68.99L217.8 64.98L219.75 61.05L221.83 57.22L224.06 53.47L226.43 49.82L228.94 46.26L231.57 42.81L234.33 39.46L237.22 36.23L240.23 33.1L243.35 30.09L246.59 27.21L249.93 24.44L253.38 21.81L256.94 19.31L260.59 16.94L264.34 14.71L268.17 12.62L272.1 10.68L276.11 8.89L280.2 7.25L284.36 5.76L288.6 4.44L292.91 3.29L297.28 2.3L301.72 1.48L306.21 0.84L310.76 0.37L315.36 0.09L320 0L324.65 0.09L329.25 0.37ZM151.22 493.8L488.8 493.8L488.8 215.52L151.22 215.52L151.22 493.8Z" id="a2Yd7I1g"></path></defs><g><g><g><use xlink:href="#dkiCx6qkO" opacity="1" fill="#ffffff" fill-opacity="1"></use><g><use xlink:href="#dkiCx6qkO" opacity="1" fill-opacity="0" stroke="#000000" stroke-width="1" stroke-opacity="0"></use></g></g><g><use xlink:href="#m3Lcx16aX4" opacity="1" fill="#ffffff" fill-opacity="1"></use><g><use xlink:href="#m3Lcx16aX4" opacity="1" fill-opacity="0" stroke="#000000" stroke-width="1" stroke-opacity="0"></use></g></g><g><use xlink:href="#h3tq07sos" opacity="1" fill="#ffffff" fill-opacity="1"></use><g><use xlink:href="#h3tq07sos" opacity="1" fill-opacity="0" stroke="#000000" stroke-width="1" stroke-opacity="0"></use></g></g><g><use xlink:href="#a2Yd7I1g" opacity="1" fill="#ffffff" fill-opacity="1"></use><g><use xlink:href="#a2Yd7I1g" opacity="1" fill-opacity="0" stroke="#000000" stroke-width="1" stroke-opacity="0"></use></g></g></g></g></svg>