<svg xmlns="http://www.w3.org/2000/svg" xmlns:xlink="http://www.w3.org/1999/xlink" version="1.1" x="0px" y="0px" viewBox="0 0 512 640" enable-background="new 0 0 512 512" xml:space="preserve"><g><path d="M215.824,370.766l1.438,1.625l0.008,20.562c-0.016,22.156,17.359,39.531,38.734,39.531s38.75-17.375,38.75-38.766   l-0.016-21.328l1.438-1.625c2.219-2.516,4.25-5.281,6-8.234c4.844-8.219,7.406-17.609,7.406-27.172   c0-29.531-24.031-53.562-53.578-53.562c-29.539,0-53.57,24.031-53.57,53.562c0,9.562,2.562,18.953,7.406,27.172   C211.582,365.484,213.605,368.25,215.824,370.766z M256.004,299.984c19.5,0,35.375,15.859,35.375,35.375   c0,11.406-5.609,22.156-14.828,28.781v29.219c0,11.688-9.219,20.891-20.547,20.891s-20.547-9.203-20.547-20.531v-29.578   c-9.227-6.625-14.828-17.375-14.828-28.781C220.629,315.844,236.504,299.984,256.004,299.984z"/><path d="M419.066,197.328H161.332v-84.438c0-52.188,42.477-94.672,94.672-94.672c52.203,0,94.672,42.484,94.672,94.672v19.375   c0.078,4.844,4.156,8.875,9.094,8.875s9.031-4.031,9.094-8.969l0.016-19.281C368.879,50.641,318.238,0,256.004,0   c-62.242,0-112.875,50.641-112.875,112.891v84.438H92.941c-13.195,0-23.93,10.719-23.93,23.906v266.844   c0,13.188,10.734,23.922,23.93,23.922h326.125c13.203,0,23.922-10.734,23.922-23.922V221.234   C442.988,208.047,432.27,197.328,419.066,197.328z M424.801,493.797H87.215V215.516h337.586V493.797z"/></g></svg>